<?xml version="1.0" encoding="iso-8859-1"?>
<!-- Generator: Adobe Illustrator 19.0.0, SVG Export Plug-In . SVG Version: 6.00 Build 0)  -->
<svg version="1.1" id="Layer_1" xmlns="http://www.w3.org/2000/svg" xmlns:xlink="http://www.w3.org/1999/xlink" x="0px" y="0px"
	 viewBox="0 0 512 512" style="enable-background:new 0 0 512 512;" xml:space="preserve">
<path style="fill:#D0E8FF;" d="M251.821,18.286C156.035,18.286,78.106,96.214,78.106,192c0,100.58,124.652,301.714,173.714,301.714
	S425.535,292.58,425.535,192C425.535,96.214,347.606,18.286,251.821,18.286z M251.821,274.286
	c-55.455,0-100.571-45.116-100.571-100.571S196.365,73.143,251.821,73.143s100.571,45.116,100.571,100.571
	S307.276,274.286,251.821,274.286z"/>
<path style="fill:#5CB0FF;" d="M251.821,91.429c-45.371,0-82.286,36.915-82.286,82.286S206.45,256,251.821,256
	s82.286-36.915,82.286-82.286S297.191,91.429,251.821,91.429z M251.763,232.915c-1.402,2.375-3.808,3.991-6.54,4.393
	c-0.442,0.067-0.888,0.098-1.33,0.098c-2.281,0-4.496-0.853-6.196-2.42l-49.924-46.013l12.393-13.446l41.607,38.348l50.924-86.165
	l15.741,9.304L251.763,232.915z"/>
<g>
	<path style="fill:#1C71DA;" d="M251.821,0c-105.871,0-192,86.129-192,192c0,104.674,129.196,320,192,320s192-215.326,192-320
		C443.821,86.129,357.691,0,251.821,0z M251.821,493.714C202.758,493.714,78.106,292.58,78.106,192
		c0-95.786,77.929-173.714,173.714-173.714S425.535,96.214,425.535,192C425.535,292.58,300.883,493.714,251.821,493.714z"/>
	<path style="fill:#1C71DA;" d="M251.821,73.143c-55.455,0-100.571,45.116-100.571,100.571s45.116,100.571,100.571,100.571
		s100.571-45.116,100.571-100.571S307.276,73.143,251.821,73.143z M251.821,256c-45.371,0-82.286-36.915-82.286-82.286
		s36.915-82.286,82.286-82.286s82.286,36.915,82.286,82.286S297.191,256,251.821,256z"/>
	<path style="fill:#1C71DA;" d="M241.772,213.875l-41.607-38.348l-12.393,13.446l49.924,46.013c1.701,1.567,3.915,2.42,6.196,2.42
		c0.442,0,0.888-0.031,1.33-0.098c2.732-0.402,5.138-2.018,6.54-4.393l56.674-95.902l-15.741-9.304L241.772,213.875z"/>
</g>
<g>
	<path style="fill:#FF5D5D;" d="M271.283,345.143c-2.34,0-4.68-0.893-6.465-2.677c-3.57-3.571-3.57-9.359,0-12.931l32.325-32.325
		c3.571-3.569,9.359-3.569,12.931,0c3.57,3.571,3.57,9.359,0,12.931l-32.325,32.325C275.963,344.25,273.623,345.143,271.283,345.143
		z"/>
	<path style="fill:#FF5D5D;" d="M303.608,345.143c-2.34,0-4.68-0.893-6.465-2.677l-32.325-32.325c-3.57-3.571-3.57-9.359,0-12.931
		c3.571-3.569,9.359-3.569,12.931,0l32.325,32.325c3.57,3.571,3.57,9.359,0,12.931C308.287,344.25,305.948,345.143,303.608,345.143z
		"/>
</g>
<path style="fill:#00D40B;" d="M65.568,482.286c-17.645,0-32-14.355-32-32s14.355-32,32-32s32,14.355,32,32
	S83.213,482.286,65.568,482.286z M65.568,436.571c-7.563,0-13.714,6.152-13.714,13.714S58.006,464,65.568,464
	s13.714-6.152,13.714-13.714S73.131,436.571,65.568,436.571z"/>
<path style="fill:#FFC504;" d="M443.429,433.434c-2.425,0-4.75-0.963-6.465-2.677l-25.861-25.861
	c-1.714-1.715-2.677-4.04-2.677-6.465c0-2.425,0.963-4.75,2.679-6.465l25.861-25.859c3.571-3.569,9.36-3.568,12.93,0l25.859,25.859
	c3.57,3.571,3.57,9.359,0,12.93l-25.859,25.861C448.179,432.471,445.854,433.434,443.429,433.434z M430.498,398.431l12.931,12.931
	l12.93-12.931l-12.93-12.93L430.498,398.431z"/>
<g>
</g>
<g>
</g>
<g>
</g>
<g>
</g>
<g>
</g>
<g>
</g>
<g>
</g>
<g>
</g>
<g>
</g>
<g>
</g>
<g>
</g>
<g>
</g>
<g>
</g>
<g>
</g>
<g>
</g>
</svg>
