<?xml version="1.0" encoding="iso-8859-1"?>
<!-- Generator: Adobe Illustrator 19.0.0, SVG Export Plug-In . SVG Version: 6.00 Build 0)  -->
<svg version="1.1" id="Layer_1" xmlns="http://www.w3.org/2000/svg" xmlns:xlink="http://www.w3.org/1999/xlink" x="0px" y="0px"
	 viewBox="0 0 512 512" style="enable-background:new 0 0 512 512;" xml:space="preserve">
<path style="fill:#5CB0FF;" d="M225.118,93.297c-45.169,0-81.92,36.751-81.92,81.92s36.751,81.92,81.92,81.92
	s81.92-36.751,81.92-81.92S270.287,93.297,225.118,93.297z M263.736,226.706l-39.56-39.56l-40.893,40.893l-12.871-12.871
	l40.893-40.893l-37.676-37.676l12.871-12.871l37.676,37.676l36.342-36.342l12.871,12.871l-36.342,36.342l39.56,39.56
	L263.736,226.706z"/>
<path style="fill:#D0E8FF;" d="M225.118,20.479c-95.36,0-172.943,77.583-172.943,172.943c0,100.134,124.098,300.374,172.943,300.374
	s172.943-200.241,172.943-300.374C398.061,98.061,320.478,20.479,225.118,20.479z M225.118,275.342
	c-55.209,0-100.125-44.916-100.125-100.125S169.909,75.092,225.118,75.092s100.125,44.916,100.125,100.125
	S280.327,275.342,225.118,275.342z"/>
<g>
	<path style="fill:#1C71DA;" d="M225.118,2.274c-105.4,0-191.147,85.747-191.147,191.147C33.971,297.631,162.593,512,225.118,512
		s191.147-214.37,191.147-318.579C416.265,88.021,330.519,2.274,225.118,2.274z M225.118,493.796
		c-48.844,0-172.943-200.241-172.943-300.374c0-95.36,77.583-172.943,172.943-172.943s172.943,77.583,172.943,172.943
		C398.061,293.555,273.963,493.796,225.118,493.796z"/>
	<path style="fill:#1C71DA;" d="M225.118,75.092c-55.209,0-100.125,44.916-100.125,100.125s44.916,100.125,100.125,100.125
		s100.125-44.916,100.125-100.125S280.327,75.092,225.118,75.092z M225.118,257.137c-45.169,0-81.92-36.751-81.92-81.92
		s36.751-81.92,81.92-81.92s81.92,36.751,81.92,81.92S270.287,257.137,225.118,257.137z"/>
	<polygon style="fill:#1C71DA;" points="273.389,137.932 260.518,125.061 224.176,161.404 186.5,123.728 173.629,136.599 
		211.305,174.275 170.411,215.168 183.282,228.039 224.176,187.146 263.736,226.706 276.607,213.835 237.047,174.275 	"/>
</g>
<g>
	<path style="fill:#FF5D5D;" d="M399.232,455.111c-2.33,0-4.659-0.889-6.437-2.666c-3.554-3.556-3.554-9.318,0-12.873l32.181-32.181
		c3.556-3.553,9.318-3.553,12.873,0c3.554,3.556,3.554,9.318,0,12.873l-32.181,32.181
		C403.891,454.222,401.562,455.111,399.232,455.111z"/>
	<path style="fill:#FF5D5D;" d="M431.413,455.111c-2.33,0-4.659-0.889-6.437-2.666l-32.181-32.181
		c-3.554-3.556-3.554-9.318,0-12.873c3.556-3.553,9.318-3.553,12.873,0l32.181,32.181c3.554,3.556,3.554,9.318,0,12.873
		C436.072,454.222,433.743,455.111,431.413,455.111z"/>
</g>
<path style="fill:#00D40B;" d="M194.431,418.702c-17.567,0-31.858-14.291-31.858-31.858c0-17.567,14.291-31.858,31.858-31.858
	c17.567,0,31.858,14.291,31.858,31.858C226.289,404.411,211.998,418.702,194.431,418.702z M194.431,373.191
	c-7.529,0-13.653,6.124-13.653,13.653c0,7.529,6.124,13.653,13.653,13.653c7.529,0,13.653-6.124,13.653-13.653
	C208.085,379.315,201.96,373.191,194.431,373.191z"/>
<path style="fill:#FFC504;" d="M443.182,69.693c-2.414,0-4.729-0.959-6.437-2.666L411,41.282c-1.707-1.708-2.666-4.022-2.666-6.437
	s0.959-4.729,2.667-6.437l25.746-25.745c3.554-3.552,9.318-3.552,12.872,0l25.745,25.745c3.554,3.556,3.554,9.318,0,12.872
	l-25.745,25.746C447.911,68.734,445.596,69.693,443.182,69.693z M430.309,34.846l12.873,12.873l12.872-12.873l-12.872-12.872
	L430.309,34.846z"/>
<g>
</g>
<g>
</g>
<g>
</g>
<g>
</g>
<g>
</g>
<g>
</g>
<g>
</g>
<g>
</g>
<g>
</g>
<g>
</g>
<g>
</g>
<g>
</g>
<g>
</g>
<g>
</g>
<g>
</g>
</svg>
