<?xml version="1.0" encoding="iso-8859-1"?>
<!-- Generator: Adobe Illustrator 19.0.0, SVG Export Plug-In . SVG Version: 6.00 Build 0)  -->
<svg version="1.1" id="Layer_1" xmlns="http://www.w3.org/2000/svg" xmlns:xlink="http://www.w3.org/1999/xlink" x="0px" y="0px"
	 viewBox="0 0 297 297" style="enable-background:new 0 0 297 297;" xml:space="preserve">
<g>
	<path style="fill:#8D96D3;" d="M197.392,252.938c-1.067-1.726-2.951-2.777-4.981-2.777h-87.823c-2.029,0-3.914,1.051-4.981,2.777
		s-1.163,3.882-0.256,5.697l17.565,35.129c0.992,1.983,3.019,3.236,5.236,3.236h52.694c2.217,0,4.245-1.253,5.236-3.236
		l17.564-35.129C198.555,256.82,198.458,254.664,197.392,252.938z"/>
	<path style="fill:#6169BC;" d="M173.871,0h-50.742c-30.327,0-55,24.673-55,54.999v156.13c0,30.326,24.673,54.999,54.999,54.999
		h50.742c30.327,0,55-24.673,55-54.999V54.999C228.871,24.673,204.198,0,173.871,0z"/>
	<path style="fill:#727EB7;" d="M197.392,252.938c-1.067-1.726-2.951-2.777-4.981-2.777h-44.248V297h26.683
		c2.217,0,4.245-1.253,5.236-3.236l17.564-35.129C198.555,256.82,198.458,254.664,197.392,252.938z"/>
	<path style="fill:#4853A3;" d="M173.871,0h-25.707v266.129h25.707c30.327,0,55-24.673,55-54.999V54.999
		C228.871,24.673,204.198,0,173.871,0z"/>
	<g>
		<path style="fill:#313052;" d="M169.398,245.837h-41.795c-21.676,0-39.248-17.572-39.248-39.248V59.54
			c0-21.676,17.572-39.248,39.248-39.248h41.795c21.676,0,39.248,17.572,39.248,39.248v147.049
			C208.645,228.265,191.073,245.837,169.398,245.837z"/>
	</g>
	<g>
		<path style="fill:#222242;" d="M169.397,20.292h-21.234v225.544h21.234c21.676,0,39.248-17.572,39.248-39.248V59.54
			C208.645,37.864,191.073,20.292,169.397,20.292z"/>
	</g>
	<g>
		<circle style="fill:#CCD2ED;" cx="148.5" cy="82.367" r="43.911"/>
	</g>
	<g>
		<circle style="fill:#CCD2ED;" cx="148.5" cy="184.827" r="43.911"/>
	</g>
	<g>
		<path style="fill:#6169BC;" d="M185.627,85.555c-0.841,0-1.661-0.341-2.257-0.926c-0.596-0.597-0.937-1.416-0.937-2.267
			c0-0.841,0.341-1.661,0.937-2.257c1.182-1.182,3.321-1.182,4.514,0c0.596,0.596,0.937,1.426,0.937,2.257
			c0,0.841-0.341,1.671-0.937,2.267C187.287,85.214,186.468,85.555,185.627,85.555z"/>
	</g>
	<g>
		<path style="fill:#6169BC;" d="M111.377,85.555c-0.841,0-1.661-0.341-2.257-0.926c-0.596-0.597-0.937-1.416-0.937-2.267
			c0-0.841,0.341-1.661,0.937-2.257c1.192-1.182,3.321-1.182,4.514,0c0.596,0.596,0.937,1.426,0.937,2.257
			c0,0.841-0.341,1.671-0.937,2.267C113.037,85.214,112.218,85.555,111.377,85.555z"/>
	</g>
	<g>
		<path style="fill:#6169BC;" d="M122.246,59.315c-0.841,0-1.661-0.341-2.257-0.937s-0.937-1.416-0.937-2.267
			c0-0.831,0.341-1.661,0.937-2.257c1.192-1.182,3.332-1.182,4.514,0c0.596,0.596,0.937,1.426,0.937,2.257
			c0,0.851-0.341,1.672-0.937,2.267C123.906,58.974,123.087,59.315,122.246,59.315z"/>
	</g>
	<g>
		<path style="fill:#6169BC;" d="M174.748,59.315c-0.841,0-1.661-0.341-2.257-0.937c-0.597-0.596-0.937-1.416-0.937-2.267
			c0-0.831,0.34-1.661,0.937-2.257c1.192-1.192,3.332-1.182,4.513,0c0.597,0.596,0.938,1.426,0.938,2.257
			c0,0.841-0.341,1.672-0.938,2.267C176.408,58.974,175.589,59.315,174.748,59.315z"/>
	</g>
	<g>
		<path style="fill:#6169BC;" d="M185.627,187.887c-0.841,0-1.661-0.341-2.267-0.937c-0.585-0.597-0.926-1.416-0.926-2.257
			s0.341-1.661,0.926-2.257c1.203-1.192,3.332-1.192,4.524,0c0.596,0.596,0.937,1.416,0.937,2.257s-0.341,1.66-0.937,2.257
			C187.287,187.546,186.468,187.887,185.627,187.887z"/>
	</g>
	<g>
		<path style="fill:#6169BC;" d="M111.377,187.887c-0.841,0-1.672-0.341-2.257-0.937c-0.596-0.597-0.937-1.416-0.937-2.257
			s0.341-1.661,0.937-2.257c1.182-1.192,3.321-1.192,4.514,0c0.596,0.596,0.937,1.416,0.937,2.257s-0.341,1.66-0.937,2.257
			C113.037,187.546,112.218,187.887,111.377,187.887z"/>
	</g>
	<g>
		<path style="fill:#6169BC;" d="M122.246,161.636c-0.841,0-1.661-0.341-2.257-0.937c-0.596-0.597-0.937-1.416-0.937-2.257
			s0.341-1.66,0.937-2.257c1.192-1.192,3.332-1.192,4.514,0c0.596,0.597,0.937,1.416,0.937,2.257s-0.341,1.66-0.937,2.257
			C123.906,161.295,123.087,161.636,122.246,161.636z"/>
	</g>
	<g>
		<path style="fill:#6169BC;" d="M174.748,161.636c-0.841,0-1.661-0.341-2.257-0.937c-0.597-0.597-0.937-1.416-0.937-2.257
			s0.34-1.66,0.937-2.257c1.192-1.192,3.332-1.192,4.513,0c0.597,0.597,0.938,1.416,0.938,2.257s-0.341,1.66-0.938,2.257
			C176.419,161.295,175.589,161.636,174.748,161.636z"/>
	</g>
	<g>
		<path style="fill:#A7B0D1;" d="M148.5,38.456c-0.113,0-0.224,0.008-0.337,0.009v87.806c0.113,0.001,0.224,0.009,0.337,0.009
			c24.252,0,43.911-19.66,43.911-43.911C192.411,58.115,172.752,38.456,148.5,38.456z"/>
	</g>
	<g>
		<path style="fill:#A7B0D1;" d="M148.5,140.915c-0.113,0-0.224,0.008-0.337,0.009v87.806c0.113,0.001,0.224,0.009,0.337,0.009
			c24.252,0,43.911-19.66,43.911-43.911S172.752,140.915,148.5,140.915z"/>
	</g>
	<g>
		<path style="fill:#4A54A3;" d="M185.627,85.555c-0.841,0-1.661-0.341-2.257-0.926c-0.596-0.597-0.937-1.416-0.937-2.267
			c0-0.841,0.341-1.661,0.937-2.257c1.182-1.182,3.321-1.182,4.514,0c0.596,0.596,0.937,1.426,0.937,2.257
			c0,0.841-0.341,1.671-0.937,2.267C187.287,85.214,186.468,85.555,185.627,85.555z"/>
	</g>
	<g>
		<path style="fill:#4A54A3;" d="M174.748,59.315c-0.841,0-1.661-0.341-2.257-0.937c-0.597-0.596-0.937-1.416-0.937-2.267
			c0-0.831,0.34-1.661,0.937-2.257c1.192-1.192,3.332-1.182,4.513,0c0.597,0.596,0.938,1.426,0.938,2.257
			c0,0.841-0.341,1.672-0.938,2.267C176.408,58.974,175.589,59.315,174.748,59.315z"/>
	</g>
	<g>
		<path style="fill:#4A54A3;" d="M185.627,187.887c-0.841,0-1.661-0.341-2.267-0.937c-0.585-0.597-0.926-1.416-0.926-2.257
			s0.341-1.661,0.926-2.257c1.203-1.192,3.332-1.192,4.524,0c0.596,0.596,0.937,1.416,0.937,2.257s-0.341,1.66-0.937,2.257
			C187.287,187.546,186.468,187.887,185.627,187.887z"/>
	</g>
	<g>
		<path style="fill:#4A54A3;" d="M174.748,161.636c-0.841,0-1.661-0.341-2.257-0.937c-0.597-0.597-0.937-1.416-0.937-2.257
			s0.34-1.66,0.937-2.257c1.192-1.192,3.332-1.192,4.513,0c0.597,0.597,0.938,1.416,0.938,2.257s-0.341,1.66-0.938,2.257
			C176.419,161.295,175.589,161.636,174.748,161.636z"/>
	</g>
	<path style="fill:#313052;" d="M152.264,76.607l-21.328-13.801l13.801,21.328c0.404,0.618,0.954,1.186,1.613,1.613
		c2.524,1.633,5.894,0.911,7.527-1.613C155.51,81.611,154.788,78.241,152.264,76.607z"/>
	<path style="fill:#222242;" d="M152.264,76.607l-4.1-2.653v12.53c2.147,0.462,4.449-0.396,5.713-2.35
		C155.51,81.611,154.788,78.241,152.264,76.607z"/>
	<path style="fill:#313052;" d="M145.548,178.269c-0.821,0.295-1.607,0.797-2.233,1.489c-2.035,2.247-1.862,5.719,0.385,7.753
		c2.247,2.035,5.719,1.863,7.753-0.385l14.612-16.138L145.548,178.269z"/>
	<path style="fill:#222242;" d="M166.064,170.988l-17.901,6.353v11.51c1.222-0.175,2.396-0.737,3.289-1.724L166.064,170.988z"/>
	<g>
		<path style="fill:#6169BC;" d="M148.497,150.757c-0.841,0-1.661-0.341-2.257-0.926c-0.597-0.597-0.937-1.426-0.937-2.267
			c0-0.831,0.34-1.661,0.937-2.257c1.192-1.182,3.332-1.182,4.514,0c0.596,0.596,0.937,1.426,0.937,2.257
			c0,0.841-0.341,1.671-0.937,2.267C150.157,150.416,149.338,150.757,148.497,150.757z"/>
	</g>
	<g>
		<path style="fill:#4A54A3;" d="M150.754,145.306c-0.671-0.671-1.65-0.948-2.59-0.856v6.273c0.111,0.012,0.221,0.033,0.334,0.033
			c0.841,0,1.66-0.341,2.257-0.926c0.596-0.597,0.937-1.426,0.937-2.267C151.69,146.733,151.349,145.902,150.754,145.306z"/>
	</g>
	<g>
		<path style="fill:#6169BC;" d="M148.497,48.436c-0.831,0-1.661-0.341-2.257-0.937c-0.597-0.597-0.937-1.416-0.937-2.257
			s0.34-1.661,0.937-2.257c1.192-1.192,3.332-1.192,4.514,0c0.596,0.596,0.937,1.416,0.937,2.257s-0.341,1.66-0.937,2.257
			C150.157,48.095,149.338,48.436,148.497,48.436z"/>
	</g>
	<g>
		<path style="fill:#4A54A3;" d="M150.754,42.985c-0.671-0.677-1.65-0.956-2.59-0.864v6.281c0.111,0.012,0.222,0.034,0.334,0.034
			c0.841,0,1.66-0.341,2.257-0.937c0.596-0.597,0.937-1.416,0.937-2.257S151.349,43.581,150.754,42.985z"/>
	</g>
</g>
<g>
</g>
<g>
</g>
<g>
</g>
<g>
</g>
<g>
</g>
<g>
</g>
<g>
</g>
<g>
</g>
<g>
</g>
<g>
</g>
<g>
</g>
<g>
</g>
<g>
</g>
<g>
</g>
<g>
</g>
</svg>
